<svg width="225" height="49" viewBox="0 0 225 49" fill="none" xmlns="http://www.w3.org/2000/svg">
    <path
        d="M0 16.875H3.93572V19.3686C3.93572 19.5717 4.03984 19.6758 4.24287 19.6758C4.33137 19.6758 4.40946 19.6394 4.48234 19.5665C4.55522 19.4936 4.63332 19.4155 4.72182 19.327C6.26799 17.255 8.62629 16.2242 11.8071 16.2242C14.6652 16.2242 16.909 17.026 18.5437 18.6294C20.1731 20.2328 20.9905 22.4922 20.9905 25.4076V39.6199H17.0548V26.0583C17.0548 23.9863 16.529 22.4141 15.4826 21.3365C14.4309 20.2589 12.916 19.7174 10.9325 19.7174C8.68876 19.7174 6.96038 20.3942 5.7526 21.753C4.54481 23.1065 3.93572 25.1264 3.93572 27.8075V39.6147H0V16.875Z"
        fill="#DD5602" />
    <path
        d="M27.0294 21.8623C27.9925 20.0558 29.3409 18.6606 31.0745 17.6871C32.808 16.7084 34.8436 16.2242 37.1758 16.2242C39.4769 16.2242 41.4395 16.7032 43.0586 17.6663C44.6777 18.6294 45.8854 19.9049 46.6872 21.4927C47.4889 23.0805 47.8897 24.8245 47.8897 26.7195V29.3433H29.7417C29.8875 31.6183 30.6528 33.4248 32.0376 34.7679C33.4223 36.111 35.2809 36.7774 37.6131 36.7774C39.5081 36.7774 40.9606 36.3922 41.9653 35.6165C42.9701 34.846 43.7093 33.7736 44.1727 32.4044H48.327C47.7752 34.5336 46.6455 36.3765 44.938 37.9383C43.2304 39.5001 40.7888 40.2758 37.6131 40.2758C35.2236 40.2758 33.1152 39.7865 31.2931 38.8129C29.471 37.8394 28.0654 36.4442 27.0711 34.6378C26.0819 32.8313 25.5822 30.702 25.5822 28.2552C25.5822 25.8084 26.0663 23.6688 27.0294 21.8623ZM43.5115 26.0583C43.5115 24.0748 43.0013 22.5235 41.981 21.399C40.9606 20.2745 39.3572 19.7174 37.1706 19.7174C35.1299 19.7174 33.4588 20.2641 32.1625 21.3573C30.8662 22.4506 30.0697 24.0176 29.7782 26.0583H43.5115Z"
        fill="#DD5602" />
    <path
        d="M51.2528 16.875H55.2302L59.6032 35.3718C59.6604 35.5748 59.7281 35.7154 59.801 35.7883C59.8739 35.8612 59.9832 35.8976 60.129 35.8976C60.2748 35.8976 60.3893 35.8612 60.4778 35.7883C60.5663 35.7154 60.6235 35.5748 60.6548 35.3718L64.9861 16.875H72.0715L76.4028 35.3718C76.4601 35.5748 76.5278 35.7154 76.6007 35.7883C76.6735 35.8612 76.7829 35.8976 76.9286 35.8976C77.0744 35.8976 77.1889 35.8612 77.2774 35.7883C77.3659 35.7154 77.4232 35.5748 77.4544 35.3718L81.8275 16.875H85.8048V17.7496L80.4687 39.6147H73.4719L68.9687 20.5504C68.8802 20.2901 68.7344 20.1548 68.5314 20.1548C68.4169 20.1548 68.3284 20.186 68.2711 20.2433C68.2138 20.3005 68.1566 20.4046 68.0941 20.5504L63.591 39.6147H56.5941L51.258 17.7496V16.875H51.2528Z"
        fill="#DD5602" />
    <path
        d="M87.9861 16.8751H93.4524V16.2191C93.4524 13.4808 94.1135 11.4452 95.441 10.1177C96.7686 8.79019 98.7989 8.12903 101.542 8.12903H105.478V11.6274H102.417H98.044C97.841 11.6274 97.6796 11.6847 97.5651 11.8044C97.4505 11.919 97.3881 12.0804 97.3881 12.2834V16.2191V16.8751H103.292V20.3735H97.3881V39.6147H93.4524V20.3735H87.9861V16.8751Z"
        fill="#DD5602" />
    <path
        d="M123.126 17.6195C124.917 18.5513 126.333 19.9205 127.369 21.7322C128.405 23.5386 128.921 25.7095 128.921 28.25C128.921 30.7906 128.405 32.9562 127.369 34.7679C126.333 36.5744 124.922 37.9436 123.126 38.8806C121.335 39.8125 119.331 40.281 117.113 40.281C114.896 40.281 112.891 39.8125 111.101 38.8806C109.31 37.9488 107.894 36.5796 106.858 34.7679C105.822 32.9615 105.306 30.7906 105.306 28.25C105.306 25.7095 105.822 23.5439 106.858 21.7322C107.894 19.9257 109.304 18.5565 111.101 17.6195C112.891 16.6876 114.896 16.2191 117.113 16.2191C119.326 16.2191 121.33 16.6876 123.126 17.6195ZM111.402 21.9716C109.96 23.471 109.237 25.5638 109.237 28.2448C109.237 30.9259 109.96 33.0187 111.402 34.518C112.845 36.0174 114.75 36.7722 117.108 36.7722C119.467 36.7722 121.372 36.0226 122.814 34.518C124.256 33.0187 124.98 30.9259 124.98 28.2448C124.98 25.5638 124.256 23.471 122.814 21.9716C121.372 20.4723 119.467 19.7175 117.108 19.7175C114.75 19.7175 112.85 20.4671 111.402 21.9716Z"
        fill="#DD5602" />
    <path d="M137.667 8.12903V39.6147H133.731V8.12903H137.667Z" fill="#DD5602" />
    <path
        d="M144.07 21.5969C145.132 19.7904 146.512 18.4421 148.204 17.5518C149.896 16.6616 151.702 16.2191 153.628 16.2191C156.866 16.2191 159.37 17.2811 161.151 19.4104C161.297 19.6134 161.458 19.7175 161.63 19.7175C161.833 19.7175 161.937 19.603 161.937 19.3687V8.12903H165.873V39.6147H161.937V37.1211C161.937 36.8868 161.833 36.7723 161.63 36.7723C161.453 36.7723 161.297 36.8764 161.151 37.0794C159.37 39.2087 156.866 40.2707 153.628 40.2707C151.702 40.2707 149.896 39.8282 148.204 38.938C146.512 38.0477 145.137 36.6994 144.07 34.8929C143.008 33.0864 142.472 30.8687 142.472 28.2449C142.472 25.6211 143.008 23.4085 144.07 21.5969ZM148.573 34.5233C150.015 36.0226 151.921 36.7775 154.279 36.7775C156.637 36.7775 158.543 36.0278 159.985 34.5233C161.427 33.024 162.15 30.9312 162.15 28.2501C162.15 25.569 161.427 23.4762 159.985 21.9769C158.543 20.4776 156.637 19.7227 154.279 19.7227C151.921 19.7227 150.015 20.4724 148.573 21.9769C147.131 23.4762 146.408 25.569 146.408 28.2501C146.413 30.9312 147.131 33.0188 148.573 34.5233Z"
        fill="#DD5602" />
    <rect x="176.59" width="48.4101" height="48.4101" rx="12.1025" fill="#DD5602" />
    <path
        d="M203.173 10.1536H206.518V28.4393C206.518 30.3272 206.073 32.0128 205.183 33.4962C204.302 34.9705 203.056 36.1347 201.447 36.9888C199.838 37.8339 197.95 38.2564 195.784 38.2564C193.617 38.2564 191.729 37.8339 190.12 36.9888C188.511 36.1347 187.261 34.9705 186.371 33.4962C185.49 32.0128 185.049 30.3272 185.049 28.4393V10.1536H188.394V28.1696C188.394 29.5181 188.69 30.7183 189.284 31.7701C189.877 32.8129 190.722 33.6355 191.819 34.2379C192.925 34.8312 194.246 35.1279 195.784 35.1279C197.321 35.1279 198.642 34.8312 199.748 34.2379C200.854 33.6355 201.699 32.8129 202.283 31.7701C202.877 30.7183 203.173 29.5181 203.173 28.1696V10.1536Z"
        fill="white" />
    <path d="M216.54 10.1536V37.7709H213.196V10.1536H216.54Z" fill="white" />
</svg>    