<svg xmlns="http://www.w3.org/2000/svg" width="24" height="24" viewBox="0 0 24 24" fill="none">
    <g clip-path="url(#clip0_30_2)">
        <g clip-path="url(#clip1_30_2)">
            <path
                d="M22.9305 4.09421L12.1325 23.6966C12.0825 23.7884 12.0086 23.865 11.9187 23.9184C11.8288 23.9717 11.7262 23.9999 11.6217 23.9999C11.5171 23.9999 11.4145 23.9717 11.3246 23.9184C11.2348 23.865 11.1609 23.7884 11.1109 23.6966L0.0858846 4.1084C-0.162426 3.66854 0.206493 3.13644 0.696019 3.22158L11.5153 5.18678C11.5862 5.20097 11.6572 5.20097 11.721 5.18678L22.3061 3.22867C22.8028 3.13644 23.1646 3.66144 22.9234 4.10131L22.9305 4.09421Z"
                fill="url(#paint0_linear_30_2)" />
            <path
                d="M16.673 0.64636L8.67034 2.23555C8.60502 2.24812 8.54578 2.2822 8.50207 2.33234C8.45835 2.38248 8.43267 2.44581 8.42912 2.51224L7.93959 10.9335C7.93656 10.9791 7.94405 11.0247 7.96147 11.067C7.97889 11.1092 8.00578 11.1468 8.04006 11.177C8.07434 11.2071 8.1151 11.229 8.15919 11.2409C8.20328 11.2529 8.24951 11.2545 8.29432 11.2457L10.522 10.7207C10.7349 10.671 10.9193 10.8626 10.8768 11.0754L10.217 14.3602C10.1999 14.4364 10.2133 14.5162 10.2544 14.5825C10.2956 14.6488 10.3611 14.6964 10.4369 14.7149C10.4866 14.7149 10.5433 14.7149 10.593 14.7007L11.9622 14.2751C12.0124 14.2599 12.0657 14.2582 12.1168 14.2702C12.1678 14.2823 12.2148 14.3075 12.253 14.3435C12.2911 14.3795 12.3191 14.4249 12.3341 14.4752C12.349 14.5255 12.3505 14.5788 12.3382 14.6298L11.2882 19.7876C11.2173 20.1068 11.643 20.2842 11.8203 20.0075L11.9409 19.823L18.4538 6.6271C18.5602 6.41426 18.3757 6.15886 18.1345 6.20142L15.843 6.65548C15.793 6.66476 15.7414 6.66109 15.6933 6.64482C15.6451 6.62855 15.6019 6.60022 15.5677 6.56253C15.5336 6.52484 15.5097 6.47904 15.4982 6.4295C15.4868 6.37995 15.4883 6.3283 15.5024 6.27946L16.9994 1.02237C17.0136 0.973539 17.015 0.92189 17.0036 0.872343C16.9921 0.822795 16.9682 0.776997 16.9341 0.739307C16.8999 0.701618 16.8567 0.67329 16.8086 0.657021C16.7604 0.640751 16.7088 0.637082 16.6588 0.64636H16.673Z"
                fill="url(#paint1_linear_30_2)" />
        </g>
    </g>
    <defs>
        <linearGradient id="paint0_linear_30_2" x1="-0.176615" y1="2.51922" x2="13.523" y2="20.8516"
            gradientUnits="userSpaceOnUse">
            <stop stop-color="#41D1FF" />
            <stop offset="1" stop-color="#BD34FE" />
        </linearGradient>
        <linearGradient id="paint1_linear_30_2" x1="10.898" y1="1.07913" x2="13.4024" y2="17.9926"
            gradientUnits="userSpaceOnUse">
            <stop stop-color="#FFEA83" />
            <stop offset="0.08" stop-color="#FFDD35" />
            <stop offset="1" stop-color="#FFA800" />
        </linearGradient>
        <clipPath id="clip0_30_2">
            <rect width="24" height="24" fill="white" />
        </clipPath>
        <clipPath id="clip1_30_2">
            <rect width="24" height="24" fill="white" />
        </clipPath>
    </defs>
</svg>