<svg width="24" height="24" viewBox="0 0 24 24" fill="none" xmlns="http://www.w3.org/2000/svg">
<g clip-path="url(#clip0_12_55)">
<path d="M12.001 4.80005C8.80101 4.80005 6.80101 6.40005 6.00101 9.60005C7.20101 8.00005 8.60101 7.40005 10.201 7.80005C11.114 8.02805 11.766 8.69005 12.489 9.42405C13.666 10.618 15.027 12 18.001 12C21.201 12 23.201 10.4 24.001 7.20005C22.801 8.80005 21.401 9.40005 19.801 9.00005C18.888 8.77205 18.236 8.11005 17.513 7.37605C16.337 6.18205 14.976 4.80005 12.001 4.80005ZM6.00101 12C2.80101 12 0.801007 13.6 0.00100708 16.8C1.20101 15.2 2.60101 14.6 4.20101 15C5.11401 15.228 5.76601 15.89 6.48901 16.624C7.66601 17.818 9.02701 19.2 12.001 19.2C15.201 19.2 17.201 17.6 18.001 14.4C16.801 16 15.401 16.6 13.801 16.2C12.888 15.972 12.236 15.31 11.513 14.576C10.337 13.382 8.97601 12 6.00101 12Z" fill="#06B6D4"/>
</g>
<defs>
<clipPath id="clip0_12_55">
<rect width="24" height="24" fill="white"/>
</clipPath>
</defs>
</svg>
