<svg width="24" height="24" viewBox="0 0 24 24" fill="black" xmlns="http://www.w3.org/2000/svg">
<path d="M22.1925 14.6C22.1925 15.3 21.5225 15.8 20.8525 15.61L17.7025 14.68L10.6925 7.67V3.5C10.6925 2.67 11.3625 2 12.1925 2C13.0225 2 13.6925 2.67 13.6925 3.5V9L21.6725 13.7C21.9925 13.88 22.1925 14.23 22.1925 14.6ZM13.6925 13.5L9.7525 9.56L3.7025 3.51C3.3125 3.12 2.6825 3.12 2.2925 3.51C1.9025 3.9 1.9025 4.53 2.2925 4.92L7.9625 10.59L2.7125 13.7C2.3925 13.88 2.1925 14.23 2.1925 14.6C2.1925 15.3 2.8625 15.8 3.5325 15.61L10.6925 13.51V19L8.4325 20.35C8.2825 20.44 8.1925 20.61 8.1925 20.78V21.28V21.36C8.1925 21.69 8.5025 21.93 8.8125 21.85L11.7325 21.12L12.1925 21L12.5725 21.09L12.9925 21.2L14.8925 21.68L15.5625 21.85C15.8825 21.93 16.1825 21.69 16.1825 21.36V20.99V20.78C16.1825 20.6 16.0925 20.44 15.9425 20.35L13.6925 19V16.33L19.2625 21.9C19.6525 22.29 20.2825 22.29 20.6725 21.9C21.0625 21.51 21.0625 20.88 20.6725 20.49L13.6925 13.5Z"/>
</svg>
