<svg width="24" height="24" viewBox="0 0 24 24" fill="none" xmlns="http://www.w3.org/2000/svg">
<g clip-path="url(#clip0_12_57)">
<path d="M21.469 6.825C22.309 8.362 22.787 10.125 22.787 12C22.787 15.979 20.631 19.456 17.424 21.325L20.719 11.798C21.334 10.258 21.539 9.027 21.539 7.934C21.539 7.529 21.513 7.155 21.469 6.825ZM13.488 6.929C14.135 6.899 14.72 6.824 14.72 6.824C15.302 6.749 15.234 5.894 14.653 5.925C14.653 5.925 12.898 6.06 11.773 6.06C10.709 6.06 8.923 5.91 8.923 5.91C8.338 5.88 8.262 6.765 8.848 6.795C8.848 6.795 9.388 6.856 9.973 6.885L11.653 11.49L9.283 18.57L5.354 6.9C6.003 6.87 6.588 6.8 6.588 6.8C7.173 6.725 7.104 5.87 6.523 5.904C6.523 5.904 4.777 6.042 3.649 6.042C3.449 6.042 3.211 6.034 2.959 6.027C4.911 3.15 8.235 1.215 12 1.215C14.809 1.215 17.365 2.287 19.286 4.048C19.24 4.045 19.195 4.039 19.145 4.039C18.085 4.039 17.333 4.962 17.333 5.953C17.333 6.843 17.846 7.596 18.393 8.484C18.804 9.204 19.283 10.127 19.283 11.461C19.283 12.376 18.929 13.455 18.462 14.94L17.387 18.525L13.487 6.915L13.488 6.929ZM12 22.784C10.941 22.784 9.919 22.631 8.952 22.347L12.189 12.941L15.504 22.028C15.528 22.081 15.554 22.129 15.582 22.177C14.462 22.57 13.257 22.786 12 22.786M1.211 12C1.211 10.436 1.547 8.95 2.146 7.61L7.29 21.709C3.694 19.96 1.212 16.271 1.211 12ZM12 0C5.385 0 0 5.385 0 12C0 18.615 5.385 24 12 24C18.615 24 24 18.615 24 12C24 5.385 18.615 0 12 0Z" fill="#21759B"/>
</g>
<defs>
<clipPath id="clip0_12_57">
<rect width="24" height="24" fill="white"/>
</clipPath>
</defs>
</svg>
